<mxfile host="65bd71144e" modified="2023-11-23T10:56:52.807Z" agent="Mozilla/5.0 (Windows NT 10.0; Win64; x64) AppleWebKit/537.36 (KHTML, like Gecko) Code/1.84.2 Chrome/114.0.5735.289 Electron/25.9.2 Safari/537.36" version="22.1.3" etag="woHJGyjYgeIt1a6bYjro" type="embed">
    <diagram id="vJYV673TWn68nu8cjQHZ" name="Page-1">
        <mxGraphModel dx="1698" dy="852" grid="1" gridSize="10" guides="1" tooltips="1" connect="1" arrows="1" fold="1" page="1" pageScale="1" pageWidth="850" pageHeight="1100" math="0" shadow="0">
            <root>
                <mxCell id="0"/>
                <mxCell id="1" parent="0"/>
                <mxCell id="60" value="" style="rounded=0;whiteSpace=wrap;html=1;fontSize=18;dashed=1;fillColor=#CCCCCC;strokeColor=none;" parent="1" vertex="1">
                    <mxGeometry x="30" y="220" width="1440" height="140" as="geometry"/>
                </mxCell>
                <mxCell id="59" value="" style="rounded=0;whiteSpace=wrap;html=1;fontSize=18;dashed=1;fillColor=#E6E6E6;strokeColor=none;" parent="1" vertex="1">
                    <mxGeometry x="30" y="120" width="1440" height="100" as="geometry"/>
                </mxCell>
                <mxCell id="61" value="" style="endArrow=none;html=1;fontSize=18;exitX=0;exitY=0;exitDx=0;exitDy=0;entryX=1;entryY=0;entryDx=0;entryDy=0;dashed=1;" parent="1" source="60" target="60" edge="1">
                    <mxGeometry width="50" height="50" relative="1" as="geometry">
                        <mxPoint x="630" y="250" as="sourcePoint"/>
                        <mxPoint x="1470.0000000000005" y="240" as="targetPoint"/>
                    </mxGeometry>
                </mxCell>
                <mxCell id="53" value="" style="endArrow=none;html=1;fontSize=20;entryX=0;entryY=0.5;entryDx=0;entryDy=0;" parent="1" target="55" edge="1">
                    <mxGeometry width="50" height="50" relative="1" as="geometry">
                        <mxPoint x="160" y="320" as="sourcePoint"/>
                        <mxPoint x="1120" y="320" as="targetPoint"/>
                    </mxGeometry>
                </mxCell>
                <mxCell id="54" value="" style="endArrow=none;html=1;fontSize=20;" parent="1" target="44" edge="1">
                    <mxGeometry width="50" height="50" relative="1" as="geometry">
                        <mxPoint x="460" y="280" as="sourcePoint"/>
                        <mxPoint x="830" y="280" as="targetPoint"/>
                    </mxGeometry>
                </mxCell>
                <mxCell id="38" value="" style="endArrow=none;html=1;fontSize=20;entryX=0;entryY=0.5;entryDx=0;entryDy=0;" parent="1" target="37" edge="1">
                    <mxGeometry width="50" height="50" relative="1" as="geometry">
                        <mxPoint x="470" y="180" as="sourcePoint"/>
                        <mxPoint x="700" y="180" as="targetPoint"/>
                    </mxGeometry>
                </mxCell>
                <mxCell id="19" value="" style="endArrow=none;html=1;fontSize=20;startArrow=none;" parent="1" edge="1">
                    <mxGeometry width="50" height="50" relative="1" as="geometry">
                        <mxPoint x="369" y="178" as="sourcePoint"/>
                        <mxPoint x="389" y="178" as="targetPoint"/>
                    </mxGeometry>
                </mxCell>
                <mxCell id="2" value="Client" style="text;html=1;strokeColor=none;fillColor=none;align=center;verticalAlign=middle;whiteSpace=wrap;rounded=0;fontSize=20;" parent="1" vertex="1">
                    <mxGeometry x="60" y="155" width="60" height="30" as="geometry"/>
                </mxCell>
                <mxCell id="3" value="Server" style="text;html=1;strokeColor=none;fillColor=none;align=center;verticalAlign=middle;whiteSpace=wrap;rounded=0;fontSize=20;" parent="1" vertex="1">
                    <mxGeometry x="70" y="285" width="60" height="30" as="geometry"/>
                </mxCell>
                <mxCell id="4" value="" style="endArrow=none;html=1;fontSize=20;startArrow=none;entryX=0;entryY=0.5;entryDx=0;entryDy=0;" parent="1" target="32" edge="1">
                    <mxGeometry width="50" height="50" relative="1" as="geometry">
                        <mxPoint x="160" y="180" as="sourcePoint"/>
                        <mxPoint x="470" y="183" as="targetPoint"/>
                    </mxGeometry>
                </mxCell>
                <mxCell id="5" value="" style="endArrow=none;html=1;fontSize=20;entryX=0;entryY=0.5;entryDx=0;entryDy=0;startArrow=none;exitX=1;exitY=0.5;exitDx=0;exitDy=0;" parent="1" source="44" target="49" edge="1">
                    <mxGeometry width="50" height="50" relative="1" as="geometry">
                        <mxPoint x="970" y="360" as="sourcePoint"/>
                        <mxPoint x="830" y="320" as="targetPoint"/>
                    </mxGeometry>
                </mxCell>
                <mxCell id="6" value="Create&lt;br&gt;EPR" style="rounded=0;whiteSpace=wrap;html=1;fontSize=20;" parent="1" vertex="1">
                    <mxGeometry x="180" y="150" width="80" height="190" as="geometry"/>
                </mxCell>
                <mxCell id="32" value="Measure" style="rounded=0;whiteSpace=wrap;html=1;fontSize=20;fillColor=default;" parent="1" vertex="1">
                    <mxGeometry x="279" y="160" width="90" height="40" as="geometry"/>
                </mxCell>
                <mxCell id="34" value="" style="endArrow=none;html=1;fontSize=20;startArrow=none;" parent="1" edge="1">
                    <mxGeometry width="50" height="50" relative="1" as="geometry">
                        <mxPoint x="369" y="181" as="sourcePoint"/>
                        <mxPoint x="389" y="181" as="targetPoint"/>
                    </mxGeometry>
                </mxCell>
                <mxCell id="35" value="" style="endArrow=none;html=1;fontSize=20;startArrow=none;" parent="1" source="44" edge="1">
                    <mxGeometry width="50" height="50" relative="1" as="geometry">
                        <mxPoint x="460" y="280" as="sourcePoint"/>
                        <mxPoint x="830" y="280" as="targetPoint"/>
                    </mxGeometry>
                </mxCell>
                <mxCell id="36" value="Create&lt;br&gt;EPR" style="rounded=0;whiteSpace=wrap;html=1;fontSize=20;" parent="1" vertex="1">
                    <mxGeometry x="490" y="160" width="80" height="140" as="geometry"/>
                </mxCell>
                <mxCell id="37" value="Measure" style="rounded=0;whiteSpace=wrap;html=1;fontSize=20;fillColor=default;" parent="1" vertex="1">
                    <mxGeometry x="590" y="160" width="90" height="40" as="geometry"/>
                </mxCell>
                <mxCell id="40" value="" style="endArrow=none;html=1;fontSize=20;startArrow=none;" parent="1" edge="1">
                    <mxGeometry width="50" height="50" relative="1" as="geometry">
                        <mxPoint x="680" y="178.3" as="sourcePoint"/>
                        <mxPoint x="700" y="178.3" as="targetPoint"/>
                    </mxGeometry>
                </mxCell>
                <mxCell id="41" value="" style="endArrow=none;html=1;fontSize=20;startArrow=none;" parent="1" edge="1">
                    <mxGeometry width="50" height="50" relative="1" as="geometry">
                        <mxPoint x="680" y="181.3" as="sourcePoint"/>
                        <mxPoint x="700" y="181.3" as="targetPoint"/>
                    </mxGeometry>
                </mxCell>
                <mxCell id="42" value="CZ" style="rounded=0;whiteSpace=wrap;html=1;fontSize=20;" parent="1" vertex="1">
                    <mxGeometry x="700" y="270" width="50" height="60" as="geometry"/>
                </mxCell>
                <mxCell id="45" value="Rotate d&lt;sub&gt;2&lt;/sub&gt;" style="rounded=0;whiteSpace=wrap;html=1;fontSize=20;fillColor=default;" parent="1" vertex="1">
                    <mxGeometry x="1160" y="300" width="100" height="40" as="geometry"/>
                </mxCell>
                <mxCell id="46" value="p&lt;sub&gt;2&lt;/sub&gt;" style="text;html=1;strokeColor=none;fillColor=none;align=center;verticalAlign=middle;whiteSpace=wrap;rounded=0;fontSize=18;" parent="1" vertex="1">
                    <mxGeometry x="380" y="160" width="60" height="30" as="geometry"/>
                </mxCell>
                <mxCell id="47" value="p&lt;span style=&quot;font-size: 15px;&quot;&gt;&lt;sub&gt;1&lt;/sub&gt;&lt;/span&gt;" style="text;html=1;strokeColor=none;fillColor=none;align=center;verticalAlign=middle;whiteSpace=wrap;rounded=0;fontSize=18;" parent="1" vertex="1">
                    <mxGeometry x="690" y="165" width="60" height="30" as="geometry"/>
                </mxCell>
                <mxCell id="49" value="Measure" style="rounded=0;whiteSpace=wrap;html=1;fontSize=20;fillColor=default;" parent="1" vertex="1">
                    <mxGeometry x="930" y="260" width="90" height="40" as="geometry"/>
                </mxCell>
                <mxCell id="50" value="" style="endArrow=none;html=1;fontSize=20;startArrow=none;" parent="1" edge="1">
                    <mxGeometry width="50" height="50" relative="1" as="geometry">
                        <mxPoint x="1020" y="278.29999999999995" as="sourcePoint"/>
                        <mxPoint x="1040" y="278.29999999999995" as="targetPoint"/>
                    </mxGeometry>
                </mxCell>
                <mxCell id="51" value="" style="endArrow=none;html=1;fontSize=20;startArrow=none;" parent="1" edge="1">
                    <mxGeometry width="50" height="50" relative="1" as="geometry">
                        <mxPoint x="1020" y="281.29999999999995" as="sourcePoint"/>
                        <mxPoint x="1040" y="281.29999999999995" as="targetPoint"/>
                    </mxGeometry>
                </mxCell>
                <mxCell id="52" value="m&lt;sub&gt;1&lt;/sub&gt;" style="text;html=1;strokeColor=none;fillColor=none;align=center;verticalAlign=middle;whiteSpace=wrap;rounded=0;fontSize=18;" parent="1" vertex="1">
                    <mxGeometry x="1030" y="260" width="60" height="30" as="geometry"/>
                </mxCell>
                <mxCell id="44" value="Rotate d&lt;sub&gt;1&lt;/sub&gt;" style="rounded=0;whiteSpace=wrap;html=1;fontSize=20;fillColor=default;" parent="1" vertex="1">
                    <mxGeometry x="780" y="260" width="120" height="40" as="geometry"/>
                </mxCell>
                <mxCell id="55" value="Measure" style="rounded=0;whiteSpace=wrap;html=1;fontSize=20;fillColor=default;" parent="1" vertex="1">
                    <mxGeometry x="1290" y="300" width="90" height="40" as="geometry"/>
                </mxCell>
                <mxCell id="56" value="" style="endArrow=none;html=1;fontSize=20;startArrow=none;" parent="1" edge="1">
                    <mxGeometry width="50" height="50" relative="1" as="geometry">
                        <mxPoint x="1380" y="318.29999999999995" as="sourcePoint"/>
                        <mxPoint x="1400" y="318.29999999999995" as="targetPoint"/>
                    </mxGeometry>
                </mxCell>
                <mxCell id="57" value="" style="endArrow=none;html=1;fontSize=20;startArrow=none;" parent="1" edge="1">
                    <mxGeometry width="50" height="50" relative="1" as="geometry">
                        <mxPoint x="1380" y="321.29999999999995" as="sourcePoint"/>
                        <mxPoint x="1400" y="321.29999999999995" as="targetPoint"/>
                    </mxGeometry>
                </mxCell>
                <mxCell id="58" value="m&lt;sub&gt;2&lt;/sub&gt;" style="text;html=1;strokeColor=none;fillColor=none;align=center;verticalAlign=middle;whiteSpace=wrap;rounded=0;fontSize=18;" parent="1" vertex="1">
                    <mxGeometry x="1390" y="300" width="60" height="30" as="geometry"/>
                </mxCell>
                <mxCell id="62" value="" style="endArrow=classic;html=1;fontSize=18;" parent="1" edge="1">
                    <mxGeometry width="50" height="50" relative="1" as="geometry">
                        <mxPoint x="761" y="191" as="sourcePoint"/>
                        <mxPoint x="760" y="250" as="targetPoint"/>
                    </mxGeometry>
                </mxCell>
                <mxCell id="63" value="d&lt;sub&gt;1&lt;/sub&gt; = f(p&lt;sub&gt;1&lt;/sub&gt;)" style="text;html=1;strokeColor=none;fillColor=none;align=center;verticalAlign=middle;whiteSpace=wrap;rounded=0;fontSize=18;" parent="1" vertex="1">
                    <mxGeometry x="740" y="190" width="130" height="30" as="geometry"/>
                </mxCell>
                <mxCell id="64" value="" style="endArrow=none;html=1;fontSize=18;endFill=0;startArrow=classic;startFill=1;" parent="1" edge="1">
                    <mxGeometry width="50" height="50" relative="1" as="geometry">
                        <mxPoint x="1070.9999999999998" y="191" as="sourcePoint"/>
                        <mxPoint x="1070.0000000000002" y="250" as="targetPoint"/>
                    </mxGeometry>
                </mxCell>
                <mxCell id="65" value="m&lt;span style=&quot;font-size: 15px;&quot;&gt;&lt;sub&gt;1&lt;/sub&gt;&lt;/span&gt;" style="text;html=1;strokeColor=none;fillColor=none;align=center;verticalAlign=middle;whiteSpace=wrap;rounded=0;fontSize=18;" parent="1" vertex="1">
                    <mxGeometry x="1060" y="190" width="60" height="30" as="geometry"/>
                </mxCell>
                <mxCell id="66" value="" style="endArrow=classic;html=1;fontSize=18;" parent="1" edge="1">
                    <mxGeometry width="50" height="50" relative="1" as="geometry">
                        <mxPoint x="1135.9999999999998" y="191" as="sourcePoint"/>
                        <mxPoint x="1135.0000000000002" y="250" as="targetPoint"/>
                    </mxGeometry>
                </mxCell>
                <mxCell id="67" value="d&lt;sub&gt;2&lt;/sub&gt; = f(m&lt;sub&gt;1&lt;/sub&gt;,p&lt;sub&gt;2&lt;/sub&gt;)" style="text;html=1;strokeColor=none;fillColor=none;align=center;verticalAlign=middle;whiteSpace=wrap;rounded=0;fontSize=18;" parent="1" vertex="1">
                    <mxGeometry x="1130" y="190" width="130" height="30" as="geometry"/>
                </mxCell>
                <mxCell id="68" value="" style="endArrow=none;html=1;fontSize=18;endFill=0;startArrow=classic;startFill=1;" parent="1" edge="1">
                    <mxGeometry width="50" height="50" relative="1" as="geometry">
                        <mxPoint x="1421" y="191.0000000000001" as="sourcePoint"/>
                        <mxPoint x="1420" y="250" as="targetPoint"/>
                    </mxGeometry>
                </mxCell>
                <mxCell id="69" value="m&lt;span style=&quot;font-size: 15px;&quot;&gt;&lt;sub&gt;2&lt;/sub&gt;&lt;/span&gt;" style="text;html=1;strokeColor=none;fillColor=none;align=center;verticalAlign=middle;whiteSpace=wrap;rounded=0;fontSize=18;" parent="1" vertex="1">
                    <mxGeometry x="1410" y="190" width="60" height="30" as="geometry"/>
                </mxCell>
            </root>
        </mxGraphModel>
    </diagram>
</mxfile>